<?xml version="1.0" encoding="UTF-8"?><svg xmlns="http://www.w3.org/2000/svg" xmlns:xlink="http://www.w3.org/1999/xlink" viewBox="0 0 151 151"><defs><style>.e{fill:none;}.f{fill:#bdaf9e;}.g{clip-path:url(#d);}</style><clipPath id="d"><rect class="e" width="151" height="151"/></clipPath></defs><g id="a"/><g id="b"><g id="c"><g class="g"><path class="f" d="M70.83,138.12c.71,0,1.37-.68,1.37-1.39,0-.66-.6-1.23-1.26-1.23-.79,0-1.52,.6-1.52,1.42s.66,1.21,1.42,1.21"/><path class="f" d="M95.93,150.68c-1.02,0-1.89-.71-1.89-1.68,0-.39,.13-.76,.31-1.08,.19,.1,.37,.13,.58,.13,.55,0,1.05-.39,1.05-1.13,0-.48-.32-.92-.89-1.06,.53-.6,.99-1.19,1.44-1.79,.08,.73,.54,1.36,1.02,2.01,.53,.68,1.05,1.42,1.05,2.34,0,1.37-1.39,2.26-2.68,2.26m-5.51-9.46c.42,0,.71,.21,.71,.69,0,1.71-2.55,3.86-5.41,4.44,.45-1.76,2.94-5.13,4.71-5.13m16.49,2.45c-2.24,2.94-4.65,6.04-8.23,6.83v-.05c1.03-.24,2.03-1.39,2.03-2.76,0-1.05-.52-1.79-1.05-2.47-.53-.71-1.05-1.42-1.05-2.39,0-.92,.55-1.6,1.52-1.6,.82,0,1.21,.61,1.21,1.32,0,.66-.16,1.37-.53,2.05,.16,.05,.45,.13,.76,.13,1,0,1.76-.74,1.76-1.74,0-1.31-1.29-2.07-2.97-2.07-1.79,0-3.68,.93-3.83,2.74-.52,.66-1.15,1.4-1.83,2.15-1.03,0-1.65,.91-1.83,1.85-1.74,1.57-3.53,2.45-4.96,2.45s-2.39-1.05-2.39-2.55c0-.32,.05-.63,.13-.95,1.84-.39,7.57-1.5,7.57-4.05,0-1.05-.89-1.65-2.39-1.65-2.91,0-6.8,2.76-7.65,5.72-.32,.36-.64,.72-.98,1.08-1.92,2.05-3.02,2.65-3.52,2.65-.47,0-.68-.29-.68-.71,0-1.95,3.63-4.7,3.63-7.07,0-.95-.61-1.68-1.76-1.68-2.73,0-5.62,3.89-6.62,5.15l-.05-.05,3.42-4.78-3,.11c-.77,1.34-1.56,2.64-2.35,3.95-.65,.73-1.41,1.57-2.19,2.36-1.92,1.94-3.21,2.68-3.89,2.68-.31,0-.47-.29-.47-.71,0-1.08,1.42-3.1,4.7-8.28l-2.71,.13c-.84,1.33-1.53,2.4-2.08,3.28-.44,.29-.94,.47-1.51,.47-.68,0-1.29-.26-1.84-.71,.08-.5,.13-1.1,.13-1.47,0-1-.26-2.13-1.42-2.13-.79,0-1.18,.6-1.18,1.29,0,.5,.18,.87,.39,1.18-.16,2.39-3.07,7.15-5.81,7.15-.66,0-.97-.47-.97-1.13,0-2.16,3.36-6.28,4.55-8.17l-2.81,.11c-.52,.76-1.63,2.68-2.84,4.62-1.76,2.81-3.18,4.26-4.47,4.26-.63,0-.87-.5-.87-1.08,0-2.21,3.28-6.05,4.52-7.91l-2.79,.11c-1.21,1.84-3.84,5.07-3.84,7.31,0,1.24,.6,2.21,1.92,2.21,2.1,0,3.63-1.68,4.78-3.36l.05,.06c-.05,.16-.11,.47-.11,.79,0,1.44,.84,2.52,2.74,2.52,3.52,0,6.91-2.6,7.96-5.99,.5,.39,1.13,.68,1.89,.68,.42,0,.83-.12,1.21-.3-1.27,2.04-1.72,2.97-1.72,3.9,0,1,.66,1.71,1.81,1.71,1.24,0,2.6-.71,4.63-2.73,.44-.44,.91-.93,1.38-1.44-.8,1.3-1.59,2.6-2.38,3.9l2.65-.08c1.31-2.6,6.02-8.96,8.09-8.96,.47,0,.74,.29,.74,.66,0,1.63-3.62,4.47-3.62,6.83,0,.95,.6,1.82,1.94,1.82s2.47-.74,4.31-2.66c.31-.32,.61-.66,.9-.99-.03,.2-.05,.4-.05,.6,0,1.89,1.24,3.21,3.23,3.21s4.18-.68,6.59-2.84v.02c0,2.13,1.94,2.81,3.76,2.81,5.1,0,7.75-3.5,10.54-7.18l-.21-.16Z"/><path class="f" d="M145.97,109.17c-.06-.47-.21-.68-.39-.68s-.3,.18-.42,.42l-7.62,15.69-7.92-15.72c-.15-.3-.36-.39-.54-.39-.15,0-.27,.18-.3,.45l-1.91,16.52c-.12,.95-.15,1.88-1.01,2.02-.39,.06-.57,.09-.77,.09-.15,0-.27,.09-.27,.18,0,.18,.18,.24,.45,.24,.72,0,1.97-.09,2.2-.09,.21,0,1.46,.09,2.44,.09,.3,0,.48-.06,.48-.24,0-.09-.12-.18-.21-.18-.18,0-.57-.03-1.01-.15-.39-.09-.63-.33-.63-.71,0-.42,0-.89,.03-1.28l1.01-11.43h.12c.45,1.04,2.56,5.3,3.33,6.91,.66,1.37,2.38,4.61,3.07,5.86,.51,.92,.65,1.16,.89,1.16s.39-.24,.92-1.34l6.31-12.92h.06l1.25,12.8c.06,.48,.03,.86-.12,.89-.12,.03-.18,.12-.18,.21,0,.12,.12,.21,.74,.27,.95,.09,3.87,.15,4.46,.15,.3,0,.54-.09,.54-.24,0-.12-.09-.18-.21-.18-.27,0-.95,0-1.7-.24-1.07-.36-1.25-1.73-1.34-2.62l-1.79-15.54Zm-42.04,10.72c0,3.69,1.01,5.45,2.29,6.64,1.84,1.73,4.58,1.79,5.45,1.79,1.55,0,3.57-.21,5.48-1.85,2.08-1.79,2.44-4.85,2.44-7.59v-2.71c0-3.93-.03-4.64,.03-5.45,.06-.83,.21-1.25,.92-1.4,.33-.06,.48-.06,.66-.06,.12,0,.21-.12,.21-.21,0-.15-.12-.21-.42-.21-.78,0-2.03,.06-2.2,.06-.15,0-1.67-.06-2.83-.06-.3,0-.42,.06-.42,.21,0,.09,.09,.21,.21,.21,.24,0,.68,.03,.89,.06,.86,.12,1.01,.6,1.04,1.4,.03,.8,.06,1.52,.06,5.45v3.18c0,2.59-.27,4.67-1.49,6.13-.89,1.07-2.44,1.78-4.05,1.78-1.49,0-2.62-.21-3.9-1.37-1.13-1.01-1.93-2.53-1.93-6.19v-3.54c0-3.93,0-4.64,.06-5.45,.06-.83,.21-1.28,.89-1.4,.33-.06,.48-.06,.65-.06,.12,0,.24-.12,.24-.21,0-.15-.15-.21-.45-.21-.77,0-2.41,.06-2.65,.06s-1.82-.06-3.01-.06c-.3,0-.42,.06-.42,.21,0,.09,.12,.21,.21,.21,.24,0,.69,.03,.9,.06,.86,.12,1.01,.6,1.07,1.4,.06,.8,.06,1.52,.06,5.45v3.72Zm-24.89-7.29c.81,.89,3.75,3.99,6.79,7.17,2.77,2.89,6.55,6.61,6.82,6.84,1.46,1.34,1.73,1.55,2,1.55,.18,0,.21-.15,.21-1.82l.06-14.82c0-1.52,.06-2.03,.92-2.2,.3-.06,.5-.06,.62-.06,.18,0,.3-.15,.3-.24,0-.15-.21-.18-.48-.18-1.07,0-1.94,.06-2.23,.06s-1.55-.06-2.74-.06c-.3,0-.5,.03-.5,.18,0,.09,.03,.24,.21,.24,.21,0,.8,.03,1.28,.12,.8,.15,.95,.72,.98,2.35l.27,12.68c-.8-.83-3.6-3.84-6.19-6.52-4.05-4.17-7.86-8.22-8.28-8.63-.27-.27-.71-.77-1.01-.77-.21,0-.36,.27-.36,1.28v14.5c0,2.29-.09,2.98-.74,3.15-.39,.12-.86,.15-1.07,.15-.12,0-.21,.09-.21,.21,0,.18,.15,.21,.42,.21,1.19,0,2.29-.09,2.53-.09s1.28,.09,2.77,.09c.3,0,.48-.06,.48-.21,0-.12-.09-.21-.21-.21-.24,0-.83-.03-1.31-.15-.72-.18-.95-.8-1.01-2.89l-.3-11.93Zm-12.18,13.31c0,.48-.21,.59-.53,.77-.69,.39-1.91,.48-2.83,.48-2.41,0-4.61-.72-6.7-2.65-.92-.86-2.77-3.42-2.77-7,0-2.95,1.07-5.21,2.59-6.37,2-1.52,3.9-1.64,5.48-1.64,3.39,0,5.39,1.01,6.04,1.96,.42,.6,.56,1.34,.59,1.67,0,.24,.03,.39,.18,.39,.18,0,.3-.12,.3-.54,0-2.53,.15-3.21,.15-3.57,0-.12-.06-.24-.33-.24-.65,0-1.58-.15-2.11-.27-.51-.12-2.35-.42-4.02-.42-1.99,0-4.61,.18-6.96,1.61-2.32,1.4-4.38,4.26-4.38,8.3,0,3.15,1.52,5.86,3.12,7.2,2.92,2.47,6.64,2.71,8.63,2.71,1.52,0,3.9-.27,5.57-1.13,.33-.18,.36-.21,.36-1.37v-2.83c0-1.07,0-1.82,.03-2.62,.06-.89,.27-1.28,.98-1.4,.3-.06,.48-.06,.65-.06,.09,0,.21-.12,.21-.21,0-.18-.12-.21-.42-.21-.8,0-2.44,.06-2.56,.06-.15,0-1.91-.06-3.1-.06-.3,0-.42,.03-.42,.21,0,.09,.12,.21,.21,.21,.24,0,.68,.03,.89,.06,1.07,.21,1.13,.5,1.13,2.56v4.38Zm-34.06-.71c-.51,1.28-1.01,2.17-2.2,2.32-.21,.03-.59,.06-.77,.06-.12,0-.24,.09-.24,.21,0,.15,.18,.21,.51,.21,1.07,0,2.38-.09,2.65-.09,.3,0,1.73,.09,2.35,.09,.24,0,.39-.06,.39-.21,0-.12-.06-.21-.27-.21h-.24c-.45,0-.89-.18-.89-.68,0-.45,.15-1.07,.39-1.7l1.49-4.05c.06-.15,.15-.21,.27-.21h6.04c.15,0,.18,.03,.24,.15l2.35,5.8c.18,.42-.09,.63-.24,.68-.12,.06-.18,.06-.18,.18,0,.15,.42,.15,.92,.18,1.82,.06,3.75,.06,4.14,.06,.3,0,.6-.06,.6-.21s-.18-.21-.33-.21c-.27,0-.66-.03-1.04-.15-.57-.18-1.28-.5-2.23-2.77-1.61-3.84-5.8-14.29-6.28-15.36-.27-.56-.36-.92-.62-.92-.18,0-.3,.15-.62,.98l-6.16,15.83Zm3.78-5.3c-.09,0-.12-.06-.09-.18l2.44-6.93c.15-.39,.3-.39,.45,0l2.59,6.93c.03,.12,.03,.18-.09,.18h-5.3Zm-13.66,4.82c.09,.89,.27,2.26,1.34,2.62,.74,.24,1.43,.24,1.7,.24,.12,0,.21,.06,.21,.18,0,.15-.24,.24-.53,.24-.59,0-3.51-.06-4.47-.15-.62-.06-.74-.15-.74-.27,0-.09,.06-.18,.18-.21,.15-.03,.18-.42,.12-.89l-1.25-12.8h-.06l-6.31,12.92c-.54,1.1-.68,1.34-.92,1.34s-.39-.24-.89-1.16c-.68-1.25-2.41-4.49-3.07-5.86-.77-1.61-2.89-5.86-3.33-6.91h-.12l-1.01,11.43c-.03,.39-.03,.86-.03,1.28,0,.39,.24,.62,.62,.71,.45,.12,.83,.15,1.01,.15,.09,0,.21,.09,.21,.18,0,.18-.18,.24-.48,.24-.98,0-2.23-.09-2.44-.09-.24,0-1.49,.09-2.2,.09-.27,0-.45-.06-.45-.24,0-.09,.12-.18,.27-.18,.21,0,.39-.03,.77-.09,.86-.15,.89-1.07,1.01-2.02l1.91-16.52c.03-.27,.15-.45,.3-.45,.18,0,.39,.09,.54,.39l7.92,15.72,7.62-15.69c.12-.24,.24-.42,.42-.42s.33,.21,.39,.68l1.78,15.54Z"/><path class="f" d="M52.21,22.85c-5.51,0-9.97,4.44-9.97,9.92s4.46,9.92,9.97,9.92,9.97-4.44,9.97-9.92-4.46-9.92-9.97-9.92m10.47,9.45c0,6.08-4.95,11.01-11.06,11.01s-11.06-4.93-11.06-11.01,4.95-11.01,11.06-11.01,11.06,4.93,11.06,11.01"/><path class="f" d="M77.93,22.85c-5.5,0-9.97,4.44-9.97,9.92s4.46,9.92,9.97,9.92,9.97-4.44,9.97-9.92-4.46-9.92-9.97-9.92m10.47,9.45c0,6.08-4.95,11.01-11.06,11.01s-11.06-4.93-11.06-11.01,4.95-11.01,11.06-11.01,11.06,4.93,11.06,11.01"/><path class="f" d="M65.07,44.76c-5.5,0-9.97,4.44-9.97,9.92s4.46,9.92,9.97,9.92,9.97-4.44,9.97-9.92-4.46-9.92-9.97-9.92m10.47,9.45c0,6.08-4.95,11.01-11.06,11.01s-11.06-4.93-11.06-11.01,4.95-11.01,11.06-11.01,11.06,4.93,11.06,11.01"/><path class="f" d="M90.9,75.77c1.28-2.25,6.58-9.43,14.33-9.49,4.37-.04,4.79,3.44,2.81,5.87-2.05,2.52-7.19,4.43-17.13,3.62m-11.4-.11h0c-4.94,3.62-10.64,5.99-17.84,6.55-10.89,.85-13.44-4.74-5.55-7.68,3.91-1.46,12.94-1.79,23.38,1.13m15.31,17.69c-4.48-3.58-6.11-9.66-4.66-15.36,8.79,.93,14.86-.09,18.24-3.61,4.67-4.86,.76-10.75-5.55-9.71-7.25,1.2-11.19,7.24-12.75,10.99-1.96-.26-4.13-.64-6.54-1.17C118.32,34.72,102.17,7.62,87.64,1.87c-11.56-4.96-24.72,.44-26.2,10.32-.85,5.64,2.1,7.96,2.1,7.96,0,0-2.29-2.51-1.4-7.3,1.76-9.47,13.78-12.27,23.65-8.56,11.23,4.22,32.65,29.47-4.19,69.77-.87-.21-3.91-1.09-4.86-1.3-8.7-1.87-15.11-1.73-20.96,.49-7.74,2.94-7.17,10.59,4.96,10.91,8.61,.23,15.75-3.62,20.78-7.97,2.92,.75,5.52,1.3,7.85,1.69-1.39,5.71,.32,11.84,4.87,15.49,4.16,3.33,9.63,3.72,14.29,1.55-4.53,2.01-9.75,1.61-13.72-1.57"/></g></g></g></svg>