<?xml version="1.0" encoding="utf-8"?>
<!-- Generator: Adobe Illustrator 24.0.2, SVG Export Plug-In . SVG Version: 6.00 Build 0)  -->
<svg version="1.1" id="Vrstva_1" xmlns="http://www.w3.org/2000/svg" xmlns:xlink="http://www.w3.org/1999/xlink" x="0px" y="0px"
	 viewBox="0 0 538.58 198.43" style="enable-background:new 0 0 538.58 198.43;" xml:space="preserve">
<style type="text/css">
	.st0{fill:none;}
	.st1{fill:#293676;}
	.st2{fill:#658BB9;}
	.st3{fill:#8EBFE7;}
	.st4{fill:#FFFFFF;}
	.st5{fill:#10183E;}
</style>
<g>
	<path class="st0" d="M132.81,86.21l3.32-3.32c-12.39-12.39-32.47-12.39-44.86,0l3.32,3.32C105.14,75.65,122.26,75.65,132.81,86.21z
		"/>
	<path class="st0" d="M94.58,86.21l-3.32-3.32c-12.39,12.39-12.39,32.47,0,44.86l3.32-3.32C84.03,113.88,84.03,96.76,94.58,86.21z"
		/>
	<path class="st0" d="M82.89,136.13l-3.25,3.25c18.81,18.81,49.31,18.81,68.12,0l-3.25-3.25C127.49,153.14,99.9,153.14,82.89,136.13
		z"/>
	<path class="st0" d="M94.58,124.43l-3.32,3.32c12.39,12.39,32.47,12.39,44.86,0l-3.32-3.32
		C122.26,134.99,105.14,134.99,94.58,124.43z"/>
	<path class="st0" d="M136.13,82.89l-3.32,3.32c10.56,10.56,10.56,27.67,0,38.23l3.32,3.32C148.51,115.36,148.51,95.28,136.13,82.89
		z"/>
	<path class="st0" d="M105.57,113.45l8.13-8.13l-8.13-8.13C101.08,101.68,101.08,108.96,105.57,113.45z"/>
	<path class="st0" d="M105.57,113.45c4.49,4.49,11.77,4.49,16.25,0l-8.13-8.13L105.57,113.45z"/>
	<path class="st0" d="M121.82,113.45c4.49-4.49,4.49-11.77,0-16.25l-8.13,8.13L121.82,113.45z"/>
	<path class="st0" d="M121.82,97.19c-4.49-4.49-11.77-4.49-16.25,0l8.13,8.13L121.82,97.19z"/>
	<path class="st0" d="M144.51,74.51l3.25-3.25c-18.81-18.81-49.31-18.81-68.12,0l3.25,3.25C99.9,57.5,127.49,57.5,144.51,74.51z"/>
	<path class="st0" d="M79.64,139.38l3.25-3.25c-17.01-17.01-17.01-44.6,0-61.62l-3.25-3.25C60.83,90.07,60.83,120.57,79.64,139.38z"
		/>
	<path class="st0" d="M144.51,136.13l3.25,3.25c18.81-18.81,18.81-49.31,0-68.12l-3.25,3.25
		C161.52,91.53,161.52,119.11,144.51,136.13z"/>
	<path class="st1" d="M136.13,127.75l8.38,8.38c17.01-17.01,17.01-44.6,0-61.61l-8.38,8.38
		C148.51,95.28,148.51,115.36,136.13,127.75z"/>
	<path class="st2" d="M91.27,82.89l-8.38-8.38c-17.01,17.01-17.01,44.6,0,61.62l8.38-8.38C78.88,115.36,78.88,95.28,91.27,82.89z"/>
	<path class="st3" d="M144.51,136.13l-8.38-8.38c-12.39,12.39-32.47,12.39-44.86,0l-8.38,8.38
		C99.9,153.14,127.49,153.14,144.51,136.13z"/>
	<path class="st1" d="M79.64,71.26c18.81-18.81,49.31-18.81,68.12,0l8.64-8.64c-23.58-23.58-61.81-23.58-85.39,0L79.64,71.26z"/>
	<path class="st3" d="M79.64,71.26L71,62.62c-23.58,23.58-23.58,61.81,0,85.39l8.64-8.64C60.83,120.57,60.83,90.07,79.64,71.26z"/>
	<path class="st2" d="M147.76,139.38l8.64,8.64c23.58-23.58,23.58-61.81,0-85.39l-8.64,8.64
		C166.57,90.07,166.57,120.57,147.76,139.38z"/>
	<path class="st2" d="M94.58,86.21l10.99,10.99c4.49-4.49,11.77-4.49,16.25,0l10.99-10.99C122.26,75.65,105.14,75.65,94.58,86.21z"
		/>
	<path class="st3" d="M105.57,97.19L94.58,86.21c-10.56,10.56-10.56,27.67,0,38.23l10.99-10.99
		C101.08,108.96,101.08,101.68,105.57,97.19z"/>
	<path class="st1" d="M105.57,113.45l-10.99,10.99c10.56,10.56,27.67,10.56,38.23,0l-10.99-10.99
		C117.34,117.93,110.06,117.93,105.57,113.45z"/>
	<g>
		<path class="st1" d="M221.35,131.33c-3.65,0-7.03-0.67-10.12-2c-3.1-1.33-5.78-3.14-8.06-5.43c-2.28-2.29-4.06-4.98-5.33-8.08
			c-1.28-3.09-1.92-6.37-1.92-9.84v-0.19c0-3.46,0.64-6.76,1.92-9.89c1.28-3.12,3.06-5.85,5.33-8.17c2.28-2.32,4.98-4.16,8.11-5.52
			c3.13-1.36,6.52-2.04,10.17-2.04c4.64,0,8.49,0.77,11.56,2.32c3.06,1.55,5.74,3.59,8.03,6.13l-6.96,7.52
			c-1.73-1.79-3.57-3.26-5.52-4.41c-1.95-1.14-4.35-1.72-7.19-1.72c-2.04,0-3.93,0.42-5.66,1.25c-1.73,0.84-3.22,1.95-4.46,3.34
			c-1.24,1.39-2.21,3.05-2.92,4.97c-0.71,1.92-1.07,3.93-1.07,6.03v0.19c0,2.17,0.36,4.21,1.07,6.13c0.71,1.92,1.72,3.59,3.02,5.01
			c1.3,1.42,2.85,2.55,4.64,3.39c1.79,0.84,3.77,1.25,5.94,1.25c2.66,0,5-0.57,7.01-1.72c2.01-1.14,3.91-2.61,5.71-4.41l6.78,6.68
			c-2.41,2.72-5.17,4.94-8.26,6.64C230.05,130.48,226.12,131.33,221.35,131.33z"/>
		<path class="st1" d="M271.15,131.33c-3.53,0-6.82-0.62-9.89-1.86c-3.06-1.24-5.72-2.97-7.98-5.2c-2.26-2.23-4.04-4.9-5.34-8.03
			c-1.3-3.12-1.95-6.57-1.95-10.35v-0.19c0-3.53,0.59-6.84,1.76-9.93c1.17-3.09,2.83-5.8,4.97-8.12c2.14-2.32,4.66-4.15,7.57-5.48
			c2.91-1.33,6.13-2,9.65-2c3.9,0,7.32,0.71,10.26,2.14c2.94,1.42,5.38,3.34,7.33,5.75s3.42,5.21,4.41,8.4
			c0.99,3.19,1.49,6.54,1.49,10.07c0,0.5-0.02,1.01-0.05,1.53c-0.03,0.53-0.08,1.07-0.14,1.62h-36.02c0.62,4.02,2.21,7.1,4.78,9.24
			c2.57,2.14,5.68,3.2,9.33,3.2c2.78,0,5.2-0.49,7.24-1.49c2.04-0.99,4.05-2.44,6.03-4.36l6.59,5.85c-2.35,2.78-5.15,5.01-8.4,6.68
			C279.55,130.5,275.67,131.33,271.15,131.33z M282.29,102.28c-0.19-1.79-0.59-3.48-1.21-5.06c-0.62-1.58-1.45-2.94-2.51-4.08
			c-1.05-1.14-2.31-2.06-3.76-2.74c-1.45-0.68-3.11-1.02-4.97-1.02c-3.47,0-6.33,1.19-8.59,3.57c-2.26,2.38-3.64,5.49-4.13,9.33
			H282.29z"/>
		<path class="st1" d="M303.44,81.21h11.32v7.69c0.8-1.19,1.68-2.29,2.64-3.32c0.96-1.03,2.07-1.95,3.33-2.76
			c1.27-0.81,2.65-1.45,4.17-1.92s3.22-0.7,5.14-0.7c5.55,0,9.84,1.7,12.87,5.11c3.02,3.4,4.54,7.98,4.54,13.74v31.19h-11.33v-27.78
			c0-3.83-0.9-6.78-2.71-8.84c-1.81-2.07-4.37-3.1-7.68-3.1c-3.25,0-5.89,1.07-7.91,3.2c-2.02,2.13-3.04,5.11-3.04,8.94v27.6h-11.32
			V81.21z"/>
		<path class="st1" d="M380.08,131.24c-2.91,0-5.72-0.56-8.45-1.67c-2.72-1.11-5.14-2.75-7.24-4.92c-2.1-2.17-3.81-4.83-5.11-7.98
			c-1.3-3.16-1.95-6.78-1.95-10.86v-0.19c0-4.08,0.63-7.7,1.9-10.86c1.26-3.16,2.95-5.82,5.05-7.98c2.1-2.17,4.52-3.81,7.27-4.92
			c2.75-1.11,5.57-1.67,8.47-1.67c4.01,0,7.35,0.87,10,2.6c2.65,1.73,4.88,3.75,6.67,6.03V62.46h11.32v67.76H396.7l0.09-8.17
			c-1.8,2.54-4.04,4.7-6.73,6.5C387.37,130.34,384.04,131.24,380.08,131.24z M382.72,121.49c1.85,0,3.64-0.37,5.37-1.11
			c1.73-0.74,3.24-1.81,4.53-3.2c1.29-1.39,2.33-3.05,3.1-4.97c0.77-1.92,1.16-4.05,1.16-6.4v-0.19c0-2.35-0.39-4.5-1.16-6.45
			c-0.77-1.95-1.8-3.6-3.1-4.97c-1.3-1.36-2.81-2.41-4.53-3.16c-1.73-0.74-3.52-1.11-5.37-1.11c-1.91,0-3.72,0.36-5.41,1.07
			c-1.7,0.71-3.19,1.75-4.49,3.11c-1.3,1.36-2.31,3.02-3.05,4.97c-0.74,1.95-1.11,4.13-1.11,6.54v0.19c0,2.35,0.37,4.5,1.11,6.45
			c0.74,1.95,1.76,3.61,3.05,4.97c1.29,1.36,2.79,2.41,4.49,3.16C379.01,121.12,380.81,121.49,382.72,121.49z"/>
		<path class="st1" d="M420.56,63.01h12.16v10.67h-12.16V63.01z M421.02,81.21h11.32v49.01h-11.32V81.21z"/>
		<path class="st1" d="M462.25,131.15c-3.53,0-7.1-0.63-10.72-1.88c-3.62-1.25-6.98-3.09-10.07-5.53l5.01-7.63
			c2.66,1.98,5.37,3.48,8.12,4.5c2.75,1.02,5.4,1.53,7.94,1.53c2.41,0,4.28-0.48,5.62-1.44c1.33-0.96,2-2.24,2-3.84v-0.19
			c0-0.93-0.29-1.73-0.88-2.41c-0.59-0.68-1.39-1.27-2.41-1.76c-1.02-0.49-2.2-0.96-3.53-1.39c-1.33-0.43-2.71-0.86-4.13-1.3
			c-1.79-0.49-3.61-1.08-5.43-1.76c-1.83-0.68-3.47-1.56-4.92-2.64c-1.46-1.08-2.65-2.42-3.57-4.03c-0.93-1.61-1.39-3.58-1.39-5.93
			v-0.19c0-2.28,0.45-4.35,1.35-6.2c0.9-1.85,2.13-3.43,3.71-4.72c1.58-1.3,3.43-2.28,5.57-2.96s4.41-1.02,6.82-1.02
			c3.09,0,6.22,0.5,9.38,1.5c3.16,1,6.03,2.38,8.63,4.13l-4.46,8.02c-2.35-1.42-4.73-2.55-7.15-3.39s-4.64-1.25-6.68-1.25
			c-2.17,0-3.85,0.46-5.06,1.39c-1.21,0.93-1.81,2.1-1.81,3.52v0.19c0,0.86,0.31,1.62,0.93,2.27c0.62,0.65,1.44,1.23,2.46,1.76
			c1.02,0.52,2.2,1.02,3.53,1.48c1.33,0.46,2.71,0.91,4.13,1.34c1.79,0.56,3.59,1.2,5.38,1.95c1.79,0.74,3.42,1.65,4.87,2.73
			c1.45,1.08,2.65,2.39,3.57,3.94c0.93,1.54,1.39,3.43,1.39,5.65v0.19c0,2.59-0.46,4.85-1.39,6.76c-0.93,1.91-2.21,3.5-3.85,4.77
			c-1.64,1.27-3.57,2.22-5.8,2.87C467.17,130.82,464.78,131.15,462.25,131.15z"/>
	</g>
</g>
</svg>
